<svg id="svg" version="1.1" xmlns="http://www.w3.org/2000/svg" xmlns:xlink="http://www.w3.org/1999/xlink" width="400" height="400" viewBox="0, 0, 400,400"><g id="svgg"><path id="path0" d="M176.325 63.871 C 175.078 64.200,175.169 65.157,177.061 71.600 C 179.454 79.752,178.976 79.469,189.462 78.952 L 196.600 78.600 196.735 77.408 C 197.001 75.072,193.599 64.642,192.355 63.976 C 191.669 63.609,177.665 63.517,176.325 63.871 M147.704 64.676 L 146.859 65.400 147.791 68.800 C 149.617 75.453,151.163 80.901,152.560 85.600 C 152.854 86.590,153.389 88.475,153.749 89.789 C 154.108 91.103,154.504 92.498,154.628 92.889 C 154.950 93.902,154.296 93.774,152.039 92.386 C 148.230 90.042,141.734 89.402,135.671 90.773 C 128.521 92.390,126.415 97.415,129.038 106.600 C 129.604 108.580,130.203 110.740,130.370 111.400 C 130.537 112.060,130.904 113.320,131.187 114.200 C 131.470 115.080,131.933 116.520,132.215 117.400 C 132.498 118.280,133.119 120.350,133.595 122.000 C 134.071 123.650,134.701 125.810,134.993 126.800 C 136.203 130.891,136.887 133.288,138.422 138.800 C 142.374 152.990,144.877 157.399,150.629 160.305 C 156.805 163.425,167.866 163.274,171.982 160.014 C 173.650 158.693,173.732 158.724,175.334 161.300 L 176.018 162.400 182.909 162.395 C 192.709 162.387,192.397 162.590,190.887 157.200 C 190.363 155.330,189.790 153.260,189.613 152.600 C 189.437 151.940,188.117 147.350,186.680 142.400 C 185.243 137.450,182.328 127.370,180.203 120.000 C 177.125 109.327,172.200 92.478,168.392 79.600 C 168.165 78.830,167.194 75.436,166.235 72.057 C 163.877 63.746,164.518 64.230,155.664 64.076 C 149.265 63.964,148.464 64.024,147.704 64.676 M192.525 64.900 C 193.818 66.211,196.716 76.937,196.007 77.792 C 195.196 78.768,180.772 78.686,179.917 77.700 C 178.831 76.448,175.722 66.103,176.119 65.066 C 176.666 63.641,191.138 63.495,192.525 64.900 M162.071 64.813 C 163.898 65.320,162.294 60.342,177.209 111.800 C 178.485 116.200,180.735 123.940,182.209 129.000 C 183.684 134.060,185.392 140.000,186.006 142.200 C 186.620 144.400,187.768 148.360,188.558 151.000 C 192.148 162.996,192.594 162.002,183.624 161.995 C 176.337 161.988,175.817 161.889,175.196 160.391 C 174.170 157.914,173.364 157.677,171.652 159.349 C 169.565 161.387,167.271 162.003,161.836 161.986 C 149.930 161.948,144.445 157.566,140.824 145.200 C 140.148 142.890,139.428 140.460,139.224 139.800 C 139.021 139.140,138.110 135.900,137.201 132.600 C 136.292 129.300,135.393 126.150,135.204 125.600 C 135.014 125.050,134.495 123.340,134.050 121.800 C 133.604 120.260,132.429 116.300,131.439 113.000 C 127.545 100.032,127.446 97.104,130.782 93.666 C 134.330 90.011,146.555 89.618,152.138 92.979 C 155.658 95.099,155.706 94.669,152.988 85.308 C 147.389 66.030,147.436 66.205,147.735 65.426 C 147.921 64.940,148.998 64.799,153.283 64.699 C 156.207 64.631,159.050 64.536,159.600 64.490 C 160.150 64.443,161.262 64.588,162.071 64.813 M86.200 70.399 C 64.430 70.741,66.512 70.617,66.204 71.587 C 65.970 72.325,67.360 77.591,70.590 88.200 C 71.472 91.099,72.353 94.124,74.025 100.000 C 75.699 105.878,76.293 107.917,77.433 111.700 C 77.782 112.855,78.315 114.700,78.620 115.800 C 80.072 121.051,80.381 122.032,80.794 122.691 C 81.167 123.286,81.193 123.239,80.958 122.400 C 80.805 121.850,80.454 120.590,80.179 119.600 C 79.904 118.610,79.200 116.180,78.615 114.200 C 76.405 106.718,72.593 93.624,71.629 90.200 C 71.443 89.540,70.294 85.577,69.076 81.394 C 67.857 77.210,66.801 73.250,66.730 72.594 L 66.600 71.400 71.400 71.154 C 81.107 70.657,109.001 70.763,109.678 71.300 C 110.434 71.899,112.498 79.139,112.558 81.400 L 112.600 83.000 106.800 83.250 C 103.610 83.387,97.979 83.522,94.287 83.550 C 85.810 83.613,86.275 82.727,89.330 93.000 C 90.115 95.640,91.377 99.927,92.135 102.527 C 92.986 105.450,93.861 107.626,94.426 108.227 L 95.339 109.200 105.570 109.206 C 111.196 109.209,116.040 109.364,116.333 109.550 C 116.746 109.812,120.010 119.491,119.992 120.400 C 119.966 121.687,119.198 121.801,109.158 122.000 C 100.530 122.171,99.028 122.291,98.685 122.836 C 98.391 123.303,99.110 126.388,101.386 134.436 C 105.179 147.847,105.186 147.868,106.278 149.046 L 107.162 150.000 120.372 150.000 L 133.582 150.000 134.140 150.900 C 135.542 153.161,137.425 161.246,136.677 161.793 C 135.994 162.293,95.063 162.944,93.685 162.477 C 93.134 162.291,92.073 160.444,91.574 158.803 C 91.323 157.977,91.263 157.942,91.234 158.606 C 91.196 159.500,92.647 162.437,93.350 162.889 C 94.043 163.334,136.514 162.759,137.100 162.297 C 137.860 161.697,137.721 160.591,136.235 155.435 C 134.318 148.782,135.890 149.375,120.607 149.540 L 107.644 149.680 106.652 148.689 C 106.107 148.144,105.467 147.001,105.230 146.149 C 104.642 144.041,99.601 126.484,99.171 125.049 C 98.391 122.443,98.553 122.400,109.240 122.400 C 121.933 122.400,121.242 122.935,118.960 114.882 C 117.091 108.284,118.191 108.802,106.024 108.787 C 94.966 108.774,94.840 108.750,93.962 106.567 C 93.479 105.367,93.344 104.921,90.279 94.400 C 89.285 90.990,88.266 87.667,88.014 87.016 C 87.762 86.364,87.659 85.419,87.785 84.916 L 88.015 84.000 100.008 84.000 C 114.905 84.000,114.297 84.270,112.612 78.400 C 112.328 77.410,111.770 75.457,111.372 74.060 C 110.151 69.772,111.711 69.999,86.200 70.399 M215.538 76.698 C 209.938 76.867,209.945 76.858,211.374 81.915 C 211.978 84.052,212.636 86.213,212.836 86.719 C 213.036 87.224,213.200 88.169,213.200 88.819 L 213.200 90.000 210.700 90.006 C 206.705 90.016,206.561 90.464,208.574 96.600 C 208.863 97.480,209.298 98.926,209.540 99.814 C 210.265 102.470,211.233 103.200,214.034 103.200 C 216.603 103.200,218.400 104.298,218.400 105.868 C 218.400 106.256,218.647 107.299,218.949 108.187 C 219.251 109.074,219.810 110.880,220.191 112.200 C 220.572 113.520,221.116 115.320,221.400 116.200 C 221.684 117.080,222.318 119.150,222.809 120.800 C 223.940 124.600,224.470 126.063,224.650 125.884 C 224.728 125.806,224.262 124.045,223.615 121.971 C 222.968 119.897,221.529 115.050,220.418 111.200 C 218.129 103.267,217.816 102.800,214.782 102.800 C 211.020 102.800,210.824 102.567,208.797 95.717 C 207.467 91.222,207.670 90.627,210.586 90.477 C 211.899 90.410,213.185 90.178,213.445 89.963 C 213.985 89.514,213.972 89.441,212.147 83.047 C 210.373 76.832,209.962 77.200,218.675 77.200 C 227.783 77.200,226.744 76.372,229.421 85.766 C 230.213 88.547,231.493 90.014,233.082 89.966 L 234.200 89.931 233.074 89.593 C 231.221 89.037,230.860 88.486,229.578 84.253 C 228.902 82.024,228.161 79.598,227.931 78.861 C 227.383 77.109,225.642 76.372,222.313 76.485 C 220.931 76.532,217.882 76.628,215.538 76.698 M333.000 88.960 C 330.283 89.628,329.598 90.057,328.200 91.964 C 326.759 93.932,325.599 94.009,325.000 92.178 C 324.780 91.505,324.281 90.470,323.891 89.878 L 323.182 88.800 315.640 88.800 C 309.413 88.800,308.011 88.905,307.598 89.402 C 307.075 90.032,308.306 94.740,314.033 114.024 C 315.311 118.328,317.703 126.518,319.350 132.224 C 320.997 137.931,322.820 144.220,323.403 146.200 C 323.985 148.180,325.008 151.690,325.676 154.000 C 327.796 161.328,327.042 160.873,336.800 160.714 L 343.800 160.600 343.920 159.567 C 344.027 158.644,343.713 157.339,341.811 150.800 C 341.217 148.757,340.274 146.515,340.549 147.800 C 340.767 148.819,342.654 155.408,343.192 157.028 C 344.291 160.339,344.156 160.400,335.767 160.400 C 327.013 160.400,328.643 162.883,321.856 139.200 C 318.987 129.187,313.140 109.040,308.823 94.289 C 307.271 88.989,306.981 89.200,315.800 89.200 L 322.742 89.200 323.571 90.254 C 324.027 90.834,324.400 91.481,324.400 91.693 C 324.400 92.530,325.721 94.800,326.208 94.800 C 326.492 94.800,327.382 93.885,328.185 92.767 C 330.848 89.061,337.835 87.364,339.090 90.118 C 339.966 92.041,342.396 101.146,342.182 101.704 C 342.022 102.121,340.964 102.354,338.403 102.536 C 331.040 103.058,329.036 105.305,330.234 111.691 C 330.800 114.706,331.119 115.880,333.197 122.600 C 335.404 129.734,338.799 141.618,338.832 142.318 C 338.854 142.806,338.925 142.844,339.081 142.453 C 339.330 141.826,339.265 141.589,334.356 125.200 C 328.558 105.842,328.873 103.974,338.072 103.175 C 343.718 102.684,343.535 103.150,341.220 95.203 C 339.158 88.123,338.485 87.611,333.000 88.960 M266.600 89.583 C 255.845 89.844,255.179 89.998,252.646 92.802 C 249.671 96.094,249.843 99.051,253.771 112.200 C 254.954 116.160,257.117 123.540,258.578 128.600 C 264.981 150.784,265.459 152.032,268.969 155.714 C 273.618 160.591,276.853 161.327,292.670 161.103 C 315.807 160.776,316.115 160.134,307.406 130.400 C 307.116 129.410,306.412 126.980,305.841 125.000 C 304.769 121.281,303.842 118.174,302.978 115.400 C 302.704 114.520,302.171 112.630,301.793 111.200 C 297.124 93.521,292.188 88.853,278.610 89.275 C 277.285 89.316,271.880 89.455,266.600 89.583 M287.458 90.630 C 293.661 92.342,297.755 97.657,300.218 107.196 C 300.812 109.496,301.433 111.743,301.597 112.189 C 301.762 112.635,302.186 113.990,302.539 115.200 C 302.893 116.410,303.708 119.200,304.351 121.400 C 312.780 150.239,313.097 151.660,311.831 154.974 C 310.019 159.720,307.508 160.481,292.935 160.702 C 277.398 160.938,273.521 160.051,269.144 155.262 C 265.821 151.626,265.451 150.699,260.743 134.200 C 258.985 128.040,256.491 119.490,255.200 115.200 C 249.692 96.893,249.779 93.982,255.928 90.935 C 258.461 89.680,283.151 89.441,287.458 90.630 M184.802 90.357 C 183.175 90.810,183.226 91.125,187.016 104.200 C 187.335 105.300,188.064 107.820,188.637 109.800 C 190.160 115.064,191.095 118.219,192.637 123.300 C 193.355 125.665,193.958 127.726,195.123 131.800 C 196.687 137.268,201.173 152.659,202.326 156.511 C 204.070 162.338,203.502 162.037,212.526 161.908 C 222.160 161.771,221.678 162.375,218.999 153.800 C 217.586 149.273,216.397 145.147,215.369 141.200 C 214.997 139.770,214.166 136.800,213.523 134.600 C 212.880 132.400,211.991 129.340,211.547 127.800 C 211.104 126.260,210.587 124.550,210.400 124.000 C 210.213 123.450,209.673 121.650,209.200 120.000 C 208.727 118.350,208.187 116.550,207.999 116.000 C 207.811 115.450,207.290 113.650,206.841 112.000 C 205.298 106.334,201.260 92.200,200.975 91.469 C 200.446 90.110,188.614 89.297,184.802 90.357 M239.884 90.280 C 240.602 90.419,240.951 91.063,241.752 93.726 C 244.439 102.663,244.576 102.139,239.484 102.402 C 235.732 102.596,234.830 102.922,234.806 104.095 C 234.800 104.367,238.505 117.345,241.001 125.800 C 241.586 127.780,242.308 130.300,242.607 131.400 C 246.950 147.404,247.277 147.912,253.533 148.355 C 257.897 148.663,257.371 148.138,259.055 153.865 C 261.293 161.472,261.495 161.185,253.883 161.194 C 242.394 161.207,236.433 158.397,232.837 151.274 C 231.874 149.366,226.060 131.171,225.081 127.000 C 224.939 126.397,224.881 126.468,224.846 127.292 C 224.821 127.892,225.049 129.062,225.353 129.892 C 225.658 130.721,226.221 132.570,226.604 134.000 C 226.987 135.430,227.525 137.320,227.799 138.200 C 228.073 139.080,228.611 140.880,228.993 142.200 C 233.428 157.501,238.566 161.600,253.310 161.600 C 262.217 161.600,261.893 161.946,259.782 154.684 C 257.871 148.107,257.790 148.001,254.691 147.998 C 248.106 147.992,247.786 147.596,244.177 135.000 C 243.358 132.140,241.839 126.920,240.803 123.400 C 237.331 111.612,235.482 104.484,235.730 103.839 C 235.923 103.334,236.630 103.192,239.087 103.160 C 245.021 103.084,245.016 103.094,242.984 96.092 C 241.356 90.480,241.094 89.975,239.851 90.054 C 239.019 90.108,239.019 90.113,239.884 90.280 M199.738 90.905 C 200.339 91.345,202.464 97.920,205.004 107.200 C 205.625 109.473,207.257 115.169,208.239 118.500 C 208.548 119.545,209.052 121.255,209.361 122.300 C 209.669 123.345,210.401 125.820,210.988 127.800 C 211.575 129.780,212.847 134.190,213.816 137.600 C 214.784 141.010,215.852 144.700,216.189 145.800 C 216.783 147.736,218.025 152.023,219.660 157.787 C 220.750 161.627,220.800 161.600,212.413 161.600 C 203.388 161.600,204.843 163.341,200.046 146.800 C 197.495 138.004,192.658 121.407,191.185 116.400 C 183.982 91.910,183.775 91.029,185.134 90.669 C 186.830 90.220,199.072 90.418,199.738 90.905 M268.982 102.582 C 267.630 103.933,267.560 103.503,271.070 115.400 C 272.043 118.700,273.204 122.660,273.650 124.200 C 274.095 125.740,274.616 127.450,274.808 128.000 C 275.000 128.550,276.074 132.330,277.195 136.400 C 280.554 148.597,280.858 148.915,288.936 148.723 C 296.854 148.534,296.642 149.428,292.330 134.400 C 289.529 124.638,288.221 120.499,288.537 122.400 C 288.786 123.896,290.418 129.634,293.485 139.800 C 295.845 147.623,295.438 148.306,288.400 148.338 C 282.970 148.362,279.675 146.566,279.613 143.549 C 279.599 142.852,275.826 129.548,272.026 116.800 C 267.495 101.596,267.401 102.017,275.320 102.006 C 282.342 101.996,282.550 102.206,285.396 112.200 C 286.343 115.524,286.929 117.204,287.088 117.046 C 287.294 116.840,283.966 105.549,283.326 104.282 C 281.875 101.412,271.394 100.170,268.982 102.582 M146.889 103.823 C 145.591 104.732,145.739 106.241,147.815 113.262 C 148.813 116.638,149.971 120.570,150.389 122.000 C 150.807 123.430,151.862 127.030,152.732 130.000 C 153.603 132.970,154.982 137.740,155.796 140.600 C 158.092 148.661,158.870 149.400,165.058 149.400 C 170.353 149.400,171.429 147.986,169.841 143.114 C 169.534 142.171,168.911 140.140,168.456 138.600 C 165.809 129.631,165.243 127.876,165.223 128.572 C 165.210 128.996,165.372 129.896,165.582 130.572 C 165.792 131.247,166.222 132.700,166.538 133.800 C 168.085 139.199,168.894 141.892,169.251 142.834 C 169.879 144.493,169.827 148.011,169.169 148.428 C 168.409 148.908,161.517 148.901,160.247 148.418 C 158.661 147.815,158.033 146.454,155.944 139.095 C 154.868 135.303,153.638 131.030,153.212 129.600 C 152.786 128.170,151.349 123.310,150.019 118.800 C 148.690 114.290,147.332 109.684,147.001 108.565 C 145.763 104.373,146.836 103.408,152.453 103.663 C 157.294 103.883,158.290 104.954,160.221 112.018 C 160.790 114.098,161.513 116.391,161.828 117.114 C 162.143 117.836,162.401 118.826,162.402 119.314 C 162.404 119.801,162.648 120.667,162.946 121.237 C 163.244 121.808,163.610 122.930,163.761 123.732 C 163.911 124.534,164.305 125.777,164.636 126.495 C 165.359 128.063,165.193 126.946,164.234 123.800 C 163.353 120.909,162.262 117.206,160.842 112.290 C 158.451 104.012,157.628 103.200,151.630 103.200 C 148.791 103.200,147.544 103.364,146.889 103.823 M287.236 118.200 C 287.236 119.028,288.315 121.710,288.361 121.000 C 288.376 120.780,288.129 119.880,287.812 119.000 C 287.495 118.120,287.235 117.760,287.236 118.200 M81.255 124.400 C 81.240 124.950,81.486 125.850,81.800 126.400 C 82.114 126.950,82.378 127.799,82.386 128.286 C 82.394 128.773,82.648 129.943,82.952 130.886 C 83.256 131.829,84.076 134.670,84.776 137.200 C 85.475 139.730,86.657 143.780,87.403 146.200 C 88.149 148.620,89.234 152.190,89.814 154.133 C 90.394 156.075,90.967 157.566,91.088 157.445 C 91.209 157.325,91.117 156.725,90.884 156.113 C 90.650 155.501,90.095 153.740,89.650 152.200 C 88.784 149.206,85.593 138.309,84.614 135.000 C 84.288 133.900,83.734 131.920,83.382 130.600 C 83.030 129.280,82.558 127.660,82.333 127.000 C 82.107 126.340,81.779 125.260,81.602 124.600 C 81.308 123.497,81.280 123.481,81.255 124.400 M339.222 143.400 C 339.216 143.620,339.471 144.520,339.788 145.400 C 340.105 146.280,340.373 146.706,340.382 146.346 C 340.392 145.986,340.137 145.086,339.816 144.346 C 339.494 143.606,339.227 143.180,339.222 143.400 M231.233 202.561 C 230.977 202.869,230.359 203.224,229.860 203.349 C 228.944 203.579,228.438 204.795,226.596 211.200 C 226.248 212.410,225.722 214.210,225.427 215.200 C 225.132 216.190,224.580 218.170,224.200 219.600 C 223.820 221.030,223.256 223.010,222.947 224.000 C 222.252 226.227,220.492 232.317,219.767 235.000 C 219.470 236.100,218.967 237.900,218.648 239.000 C 218.330 240.100,217.789 241.990,217.447 243.200 C 217.104 244.410,216.450 246.660,215.994 248.200 C 215.538 249.740,214.920 251.900,214.622 253.000 C 214.324 254.100,213.786 255.990,213.426 257.200 C 212.802 259.300,212.313 261.029,211.018 265.700 C 210.698 266.855,210.060 269.060,209.600 270.600 C 209.140 272.140,208.520 274.300,208.222 275.400 C 207.924 276.500,207.386 278.390,207.026 279.600 C 206.667 280.810,206.130 282.700,205.833 283.800 C 205.258 285.927,203.634 291.560,202.545 295.200 C 202.183 296.410,201.659 298.210,201.381 299.200 C 199.792 304.851,198.775 308.419,197.331 313.400 C 196.354 316.774,195.511 319.715,194.981 321.600 C 194.015 325.036,193.102 328.210,192.564 330.000 C 192.266 330.990,191.653 333.150,191.200 334.800 C 190.747 336.450,190.134 338.610,189.836 339.600 C 189.282 341.444,188.483 344.225,187.335 348.297 C 186.979 349.564,186.447 351.410,186.155 352.400 C 185.862 353.390,185.238 355.550,184.767 357.200 C 184.296 358.850,183.650 361.100,183.331 362.200 C 183.013 363.300,182.476 365.190,182.139 366.400 C 180.899 370.847,180.499 372.247,179.855 374.400 C 178.797 377.937,177.167 383.638,176.595 385.800 C 176.304 386.900,175.767 388.790,175.400 390.000 C 175.033 391.210,174.498 393.100,174.211 394.200 C 173.924 395.300,173.489 396.707,173.244 397.326 C 172.070 400.302,162.462 400.000,258.200 400.000 C 314.867 400.000,343.600 399.865,343.600 399.600 C 343.600 399.380,343.870 399.200,344.200 399.200 C 344.642 399.200,344.800 398.738,344.800 397.443 C 344.800 396.250,344.993 395.612,345.400 395.455 C 345.834 395.289,346.000 394.609,346.000 393.000 C 346.000 391.391,346.166 390.711,346.600 390.545 C 347.008 390.388,347.200 389.749,347.200 388.545 C 347.200 387.341,347.392 386.701,347.800 386.545 C 348.207 386.388,348.400 385.750,348.400 384.557 C 348.400 383.333,348.643 382.557,349.200 382.000 C 349.725 381.475,350.000 380.667,350.000 379.649 C 350.000 378.758,350.255 377.886,350.600 377.600 C 350.948 377.311,351.200 376.439,351.200 375.522 C 351.200 374.652,351.469 373.674,351.800 373.343 C 352.154 372.989,352.400 372.011,352.400 370.959 C 352.400 369.742,352.591 369.102,353.000 368.945 C 353.418 368.784,353.600 368.133,353.600 366.800 C 353.600 365.467,353.782 364.816,354.200 364.655 C 354.633 364.489,354.800 363.810,354.800 362.213 C 354.800 360.513,354.939 360.000,355.400 360.000 C 355.853 360.000,356.000 359.511,356.000 358.000 C 356.000 356.564,356.156 356.000,356.553 356.000 C 357.200 356.000,357.587 354.791,357.595 352.743 C 357.598 351.820,357.820 351.201,358.200 351.055 C 358.598 350.902,358.800 350.274,358.800 349.184 C 358.800 348.259,359.062 347.281,359.400 346.943 C 359.786 346.557,360.000 345.568,360.000 344.171 C 360.000 342.508,360.140 342.000,360.600 342.000 C 361.042 342.000,361.200 341.539,361.200 340.249 C 361.200 339.180,361.434 338.304,361.800 338.000 C 362.197 337.670,362.400 336.775,362.400 335.351 C 362.400 333.706,362.541 333.200,363.000 333.200 C 363.412 333.200,363.600 332.787,363.600 331.885 C 363.600 331.161,363.960 329.863,364.400 329.000 C 364.840 328.137,365.200 326.768,365.200 325.958 C 365.200 325.018,365.417 324.402,365.800 324.255 C 366.242 324.086,366.400 323.388,366.400 321.613 C 366.400 319.735,366.533 319.200,367.000 319.200 C 367.442 319.200,367.600 318.738,367.600 317.443 C 367.600 316.250,367.793 315.612,368.200 315.455 C 368.608 315.299,368.800 314.660,368.800 313.462 C 368.800 312.382,369.033 311.505,369.400 311.200 C 369.780 310.885,370.000 310.002,370.000 308.794 C 370.000 307.499,370.186 306.814,370.578 306.664 C 370.896 306.542,371.267 305.758,371.402 304.921 C 371.537 304.084,371.907 302.922,372.224 302.338 C 372.541 301.754,372.800 300.449,372.800 299.438 C 372.800 298.071,372.954 297.600,373.400 297.600 C 373.842 297.600,374.000 297.139,374.000 295.849 C 374.000 294.780,374.234 293.904,374.600 293.600 C 374.984 293.281,375.200 292.396,375.200 291.138 C 375.200 289.762,375.379 289.106,375.800 288.945 C 376.220 288.783,376.400 288.128,376.400 286.757 C 376.400 285.284,376.548 284.800,377.000 284.800 C 377.453 284.800,377.600 284.311,377.600 282.800 C 377.600 281.333,377.813 280.587,378.400 280.000 C 378.901 279.499,379.200 278.667,379.200 277.771 C 379.200 276.986,379.470 276.073,379.800 275.743 C 380.167 275.375,380.400 274.395,380.400 273.214 C 380.400 271.869,380.581 271.216,381.000 271.055 C 381.408 270.899,381.600 270.259,381.600 269.055 C 381.600 267.851,381.792 267.212,382.200 267.055 C 382.642 266.886,382.800 266.188,382.800 264.413 C 382.800 262.535,382.933 262.000,383.400 262.000 C 383.842 262.000,384.000 261.538,384.000 260.243 C 384.000 259.050,384.193 258.412,384.600 258.255 C 385.040 258.087,385.200 257.393,385.200 255.659 C 385.200 253.630,385.314 253.264,386.000 253.084 C 386.638 252.917,386.800 252.538,386.800 251.209 C 386.800 250.261,387.059 249.284,387.400 248.943 C 387.771 248.572,388.000 247.590,388.000 246.371 C 388.000 244.886,388.148 244.400,388.600 244.400 C 389.052 244.400,389.200 243.916,389.200 242.443 C 389.200 241.072,389.380 240.417,389.800 240.255 C 390.224 240.093,390.400 239.431,390.400 238.000 C 390.400 236.569,390.576 235.907,391.000 235.745 C 391.420 235.583,391.600 234.928,391.600 233.557 C 391.600 232.155,391.757 231.600,392.155 231.600 C 392.509 231.600,392.811 230.919,392.992 229.714 C 393.147 228.677,393.528 227.467,393.837 227.025 C 394.147 226.583,394.400 225.529,394.400 224.682 C 394.400 223.836,394.670 222.873,395.000 222.543 C 395.330 222.213,395.606 221.281,395.613 220.471 C 395.620 219.662,395.890 218.651,396.213 218.224 C 396.536 217.796,396.800 216.691,396.800 215.766 C 396.800 214.641,396.998 214.009,397.400 213.855 C 397.808 213.699,398.000 213.060,398.000 211.862 C 398.000 210.782,398.233 209.905,398.600 209.600 C 398.997 209.270,399.200 208.375,399.200 206.951 C 399.200 205.768,399.380 204.800,399.600 204.800 C 399.820 204.800,400.000 204.530,400.000 204.200 C 400.000 203.870,399.820 203.600,399.600 203.600 C 399.380 203.600,399.200 203.349,399.200 203.043 C 399.200 202.736,398.915 202.376,398.567 202.243 C 397.062 201.665,231.715 201.979,231.233 202.561 M293.076 210.100 C 293.254 210.375,293.400 224.280,293.400 241.000 C 293.400 270.657,293.496 273.044,294.600 270.953 C 295.120 269.968,298.047 264.833,298.678 263.800 C 298.946 263.360,299.345 262.606,299.563 262.125 C 299.782 261.644,300.780 259.902,301.780 258.253 C 302.781 256.605,303.600 255.159,303.600 255.040 C 303.600 254.832,306.777 249.248,307.604 248.000 C 307.823 247.670,308.162 247.040,308.357 246.600 C 308.552 246.160,309.542 244.400,310.556 242.688 C 311.570 240.977,312.400 239.498,312.400 239.401 C 312.400 239.304,313.271 237.734,314.336 235.912 C 315.401 234.091,317.066 231.160,318.035 229.400 C 319.004 227.640,320.015 225.840,320.283 225.400 C 320.550 224.960,320.901 224.330,321.063 224.000 C 321.225 223.670,322.222 221.901,323.279 220.068 C 324.335 218.236,325.200 216.678,325.200 216.606 C 325.200 216.534,326.112 214.926,327.227 213.032 L 329.254 209.588 340.722 209.694 C 353.541 209.813,353.541 209.812,351.500 212.519 C 350.969 213.224,349.775 215.060,348.847 216.600 C 346.291 220.839,346.339 220.761,344.180 224.191 C 343.069 225.956,341.668 228.210,341.066 229.200 C 340.464 230.190,339.000 232.530,337.813 234.400 C 336.626 236.270,334.517 239.659,333.127 241.931 C 331.737 244.203,330.330 246.487,330.000 247.006 C 329.670 247.525,328.360 249.626,327.088 251.675 C 323.068 258.152,322.328 259.337,320.644 262.001 C 318.933 264.708,318.732 265.035,316.956 268.000 C 316.364 268.990,315.297 270.700,314.587 271.800 C 313.877 272.900,311.181 277.220,308.597 281.400 C 303.261 290.031,301.551 292.769,299.700 295.648 C 298.226 297.940,298.003 301.367,298.816 309.200 C 299.033 311.290,299.382 316.240,299.592 320.200 C 299.801 324.160,300.156 329.380,300.381 331.800 C 300.797 336.277,301.276 343.435,302.000 356.000 C 302.222 359.850,302.593 364.800,302.825 367.000 C 303.057 369.200,303.411 374.330,303.612 378.400 C 303.813 382.470,304.096 386.912,304.242 388.272 L 304.506 390.744 303.153 390.994 C 300.902 391.411,280.488 391.049,280.023 390.584 C 279.747 390.307,279.529 379.195,279.371 357.384 C 279.128 323.975,279.090 322.771,278.309 324.200 C 278.069 324.640,277.128 326.170,276.219 327.600 C 275.310 329.030,274.347 330.650,274.079 331.200 C 273.811 331.750,273.235 332.740,272.800 333.400 C 272.365 334.060,271.885 334.870,271.734 335.200 C 271.582 335.530,271.000 336.520,270.439 337.400 C 269.879 338.280,269.178 339.450,268.882 340.000 C 268.443 340.816,264.654 347.203,263.187 349.600 C 261.719 351.999,255.200 363.254,255.200 363.390 C 255.200 363.484,254.660 364.360,254.000 365.338 C 253.340 366.316,252.800 367.256,252.800 367.427 C 252.800 367.597,252.550 368.021,252.245 368.369 C 251.939 368.716,251.207 369.900,250.617 371.000 C 250.027 372.100,249.209 373.540,248.800 374.200 C 248.391 374.860,247.611 376.210,247.067 377.200 C 243.863 383.034,239.103 390.628,238.502 390.866 C 238.116 391.019,232.979 391.156,227.087 391.172 C 215.670 391.202,215.037 391.089,216.323 389.246 C 216.571 388.891,217.332 387.700,218.014 386.600 C 218.696 385.500,220.097 383.305,221.127 381.723 C 222.157 380.141,224.334 376.721,225.965 374.123 C 227.596 371.525,229.901 367.903,231.086 366.072 C 232.271 364.242,233.411 362.352,233.620 361.872 C 233.828 361.393,234.584 360.160,235.299 359.133 C 236.015 358.106,237.680 355.534,239.000 353.419 C 240.320 351.303,242.300 348.176,243.400 346.469 C 244.500 344.762,246.120 342.211,247.000 340.800 C 247.880 339.389,249.500 336.838,250.600 335.131 C 251.700 333.424,253.680 330.293,255.000 328.173 C 256.320 326.053,258.310 322.938,259.423 321.249 C 260.535 319.561,261.571 317.914,261.725 317.590 C 261.879 317.265,262.719 315.920,263.590 314.600 C 264.462 313.280,265.911 311.030,266.810 309.600 C 267.709 308.170,269.330 305.650,270.414 304.000 C 273.647 299.075,274.101 297.839,273.864 294.600 C 273.752 293.060,273.464 287.570,273.225 282.400 C 272.985 277.230,272.617 271.110,272.405 268.800 C 272.193 266.490,271.916 261.270,271.790 257.200 C 271.663 253.130,271.377 247.919,271.154 245.621 C 270.932 243.323,270.594 237.203,270.404 232.021 C 270.214 226.839,269.838 219.966,269.568 216.747 C 269.299 213.527,269.190 210.602,269.327 210.247 C 269.655 209.390,292.526 209.249,293.076 210.100 " stroke="none" fill="#47b7ff" fill-rule="evenodd"/><path id="path1" d="M55.200 204.612 C 55.200 205.499,54.977 206.111,54.600 206.255 C 54.180 206.417,54.000 207.072,54.000 208.443 C 54.000 209.916,53.852 210.400,53.400 210.400 C 52.933 210.400,52.800 210.933,52.800 212.800 C 52.800 214.667,52.667 215.200,52.200 215.200 C 51.747 215.200,51.600 215.689,51.600 217.200 C 51.600 218.636,51.444 219.200,51.047 219.200 C 50.400 219.200,50.013 220.409,50.005 222.457 C 50.002 223.380,49.780 223.999,49.400 224.145 C 49.002 224.298,48.800 224.926,48.800 226.016 C 48.800 226.941,48.538 227.919,48.200 228.257 C 47.814 228.643,47.600 229.632,47.600 231.029 C 47.600 232.692,47.460 233.200,47.000 233.200 C 46.548 233.200,46.400 233.684,46.400 235.157 C 46.400 236.528,46.220 237.183,45.800 237.345 C 45.367 237.511,45.200 238.190,45.200 239.787 C 45.200 241.487,45.061 242.000,44.600 242.000 C 44.132 242.000,44.000 242.537,44.000 244.437 C 44.000 246.538,43.890 246.904,43.200 247.084 C 42.557 247.252,42.400 247.630,42.400 249.004 C 42.400 250.155,42.204 250.790,41.800 250.945 C 41.358 251.114,41.200 251.812,41.200 253.587 C 41.200 255.465,41.067 256.000,40.600 256.000 C 40.158 256.000,40.000 256.462,40.000 257.757 C 40.000 258.950,39.807 259.588,39.400 259.745 C 38.992 259.901,38.800 260.541,38.800 261.745 C 38.800 262.949,38.608 263.588,38.200 263.745 C 37.792 263.901,37.600 264.540,37.600 265.738 C 37.600 266.746,37.364 267.698,37.051 267.958 C 36.748 268.209,36.383 269.266,36.237 270.307 C 36.092 271.348,35.710 272.549,35.387 272.976 C 35.064 273.404,34.800 274.416,34.800 275.227 C 34.800 276.050,34.535 276.922,34.200 277.200 C 33.838 277.500,33.600 278.376,33.600 279.406 C 33.600 280.556,33.404 281.190,33.000 281.345 C 32.587 281.503,32.400 282.148,32.400 283.416 C 32.400 284.519,32.160 285.498,31.800 285.857 C 31.429 286.228,31.200 287.210,31.200 288.429 C 31.200 289.914,31.052 290.400,30.600 290.400 C 30.133 290.400,30.000 290.933,30.000 292.800 C 30.000 294.585,29.857 295.200,29.443 295.200 C 28.750 295.200,28.400 296.069,28.400 297.790 C 28.400 298.598,28.166 299.204,27.800 299.345 C 27.369 299.510,27.200 300.185,27.200 301.745 C 27.200 303.304,27.031 303.979,26.600 304.145 C 26.192 304.301,26.000 304.941,26.000 306.145 C 26.000 307.349,25.808 307.988,25.400 308.145 C 24.958 308.314,24.800 309.012,24.800 310.787 C 24.800 312.665,24.667 313.200,24.200 313.200 C 23.758 313.200,23.600 313.662,23.600 314.957 C 23.600 316.150,23.407 316.788,23.000 316.945 C 22.560 317.113,22.400 317.807,22.400 319.541 C 22.400 321.570,22.286 321.936,21.600 322.116 C 20.958 322.284,20.797 322.668,20.787 324.063 C 20.780 325.018,20.510 326.149,20.187 326.576 C 19.864 327.004,19.600 328.129,19.600 329.076 C 19.600 330.342,19.441 330.800,19.000 330.800 C 18.547 330.800,18.400 331.289,18.400 332.800 C 18.400 334.311,18.253 334.800,17.800 334.800 C 17.339 334.800,17.200 335.313,17.200 337.013 C 17.200 338.610,17.033 339.289,16.600 339.455 C 16.180 339.617,16.000 340.272,16.000 341.643 C 16.000 343.116,15.852 343.600,15.400 343.600 C 14.956 343.600,14.800 344.067,14.800 345.400 C 14.800 346.667,14.563 347.437,14.000 348.000 C 13.443 348.557,13.200 349.333,13.200 350.557 C 13.200 351.750,13.007 352.388,12.600 352.545 C 12.202 352.698,12.000 353.326,12.000 354.416 C 12.000 355.341,11.738 356.319,11.400 356.657 C 11.033 357.025,10.800 358.005,10.800 359.186 C 10.800 360.531,10.619 361.184,10.200 361.345 C 9.792 361.501,9.600 362.141,9.600 363.345 C 9.600 364.549,9.408 365.188,9.000 365.345 C 8.558 365.514,8.400 366.212,8.400 367.987 C 8.400 369.820,8.262 370.400,7.825 370.400 C 7.444 370.400,7.154 371.043,6.969 372.300 C 6.816 373.345,6.445 374.555,6.145 374.989 C 5.845 375.423,5.600 376.548,5.600 377.489 C 5.600 378.743,5.440 379.200,5.000 379.200 C 4.535 379.200,4.400 379.729,4.400 381.557 C 4.400 383.284,4.239 383.976,3.800 384.145 C 3.389 384.302,3.200 384.945,3.200 386.187 C 3.200 387.532,3.045 388.000,2.600 388.000 C 2.128 388.000,2.000 388.556,2.000 390.600 C 2.000 392.644,1.872 393.200,1.400 393.200 C 0.956 393.200,0.800 393.667,0.800 395.000 C 0.800 395.990,0.620 396.800,0.400 396.800 C 0.180 396.800,0.000 397.520,0.000 398.400 L 0.000 400.000 86.123 400.000 L 172.247 400.000 173.136 396.900 C 173.625 395.195,174.308 392.810,174.655 391.600 C 175.002 390.390,175.562 388.410,175.900 387.200 C 176.237 385.990,176.761 384.190,177.064 383.200 C 177.818 380.734,179.577 374.629,180.233 372.200 C 180.530 371.100,181.033 369.300,181.352 368.200 C 181.670 367.100,182.211 365.210,182.553 364.000 C 182.896 362.790,183.550 360.540,184.006 359.000 C 184.950 355.815,185.731 353.014,186.405 350.400 C 186.660 349.410,187.022 348.240,187.209 347.800 C 187.396 347.360,187.657 346.550,187.789 346.000 C 187.921 345.450,188.311 344.010,188.657 342.800 C 189.003 341.590,189.562 339.610,189.900 338.400 C 190.237 337.190,190.752 335.390,191.043 334.400 C 191.334 333.410,191.868 331.520,192.228 330.200 C 192.588 328.880,193.129 326.990,193.430 326.000 C 193.731 325.010,194.350 322.850,194.806 321.200 C 195.865 317.364,196.770 314.224,197.401 312.200 C 197.675 311.320,198.212 309.430,198.595 308.000 C 198.978 306.570,199.535 304.590,199.834 303.600 C 200.133 302.610,200.762 300.450,201.233 298.800 C 202.703 293.649,203.219 291.859,203.773 290.000 C 204.068 289.010,204.617 287.030,204.995 285.600 C 205.372 284.170,205.904 282.280,206.178 281.400 C 206.890 279.115,207.837 275.864,208.800 272.400 C 209.259 270.750,209.922 268.410,210.274 267.200 C 210.908 265.017,211.309 263.622,212.628 259.000 C 213.005 257.680,213.553 255.790,213.845 254.800 C 214.138 253.810,214.747 251.650,215.200 250.000 C 215.653 248.350,216.266 246.190,216.564 245.200 C 217.102 243.410,218.015 240.236,218.981 236.800 C 219.259 235.810,219.783 234.010,220.145 232.800 C 221.234 229.160,222.858 223.527,223.433 221.400 C 223.730 220.300,224.267 218.410,224.626 217.200 C 224.986 215.990,225.524 214.100,225.822 213.000 C 226.120 211.900,226.748 209.740,227.218 208.200 C 227.687 206.660,228.100 204.950,228.136 204.400 L 228.200 203.400 141.700 203.299 L 55.200 203.198 55.200 204.612 M166.344 209.957 C 166.964 210.350,166.717 212.854,165.827 215.200 C 165.534 215.970,164.903 217.950,164.424 219.600 C 163.945 221.250,163.265 223.590,162.913 224.800 C 162.561 226.010,161.961 227.900,161.581 229.000 L 160.889 231.000 139.834 231.104 L 118.780 231.207 118.430 232.104 C 118.238 232.597,117.772 234.170,117.395 235.600 C 117.018 237.030,116.456 239.010,116.147 240.000 C 115.497 242.083,113.770 248.090,112.984 251.000 C 112.687 252.100,112.180 253.900,111.857 255.000 C 111.534 256.100,110.964 258.080,110.590 259.400 C 110.217 260.720,109.679 262.610,109.394 263.600 C 108.052 268.275,107.118 271.571,106.615 273.400 C 106.314 274.500,105.767 276.390,105.400 277.600 C 104.045 282.073,103.507 284.230,103.454 285.400 L 103.400 286.600 119.964 286.704 C 130.539 286.771,136.708 286.957,137.023 287.219 C 137.570 287.673,137.529 287.919,136.102 292.800 C 135.555 294.670,134.872 297.100,134.585 298.200 C 133.742 301.426,132.475 305.750,132.031 306.918 L 131.620 308.000 114.459 308.000 C 101.206 308.000,97.209 308.114,96.905 308.500 C 96.463 309.063,95.615 311.479,94.659 314.903 C 93.671 318.442,92.759 321.618,92.164 323.600 C 91.866 324.590,91.253 326.750,90.800 328.400 C 90.347 330.050,89.738 332.210,89.445 333.200 C 89.153 334.190,88.637 335.990,88.300 337.200 C 87.278 340.862,86.327 344.133,85.915 345.400 C 85.701 346.060,85.265 347.590,84.948 348.800 C 84.211 351.604,83.420 354.413,82.582 357.200 C 82.218 358.410,81.676 360.300,81.378 361.400 C 81.080 362.500,80.481 364.653,80.046 366.184 C 79.612 367.715,79.345 369.110,79.452 369.284 C 79.559 369.458,89.132 369.603,100.724 369.606 C 112.316 369.609,122.050 369.770,122.355 369.964 C 122.949 370.340,122.893 370.790,121.800 374.400 C 121.433 375.610,120.890 377.500,120.592 378.600 C 120.294 379.700,119.754 381.590,119.392 382.800 C 119.030 384.010,118.492 385.956,118.197 387.123 C 117.902 388.291,117.371 389.689,117.017 390.230 L 116.372 391.214 84.006 391.107 C 48.621 390.990,50.386 391.128,51.336 388.559 C 51.653 387.702,52.312 385.560,52.800 383.800 C 53.288 382.040,53.948 379.700,54.268 378.600 C 54.587 377.500,55.124 375.610,55.461 374.400 C 56.355 371.195,57.018 368.888,57.763 366.400 C 58.817 362.874,60.449 357.166,61.021 355.000 C 61.312 353.900,61.846 352.010,62.208 350.800 C 62.570 349.590,63.114 347.700,63.415 346.600 C 63.717 345.500,64.338 343.340,64.794 341.800 C 65.250 340.260,65.904 338.010,66.247 336.800 C 66.589 335.590,67.130 333.700,67.448 332.600 C 67.767 331.500,68.302 329.610,68.637 328.400 C 68.972 327.190,69.500 325.300,69.810 324.200 C 70.119 323.100,70.639 321.254,70.964 320.097 C 71.290 318.941,71.659 317.828,71.785 317.624 C 71.911 317.420,72.180 316.476,72.383 315.527 C 72.586 314.577,73.131 312.540,73.594 311.000 C 74.057 309.460,74.683 307.300,74.985 306.200 C 75.286 305.100,75.833 303.210,76.200 302.000 C 76.567 300.790,77.115 298.900,77.420 297.800 C 77.724 296.700,78.231 294.900,78.548 293.800 C 78.864 292.700,79.505 290.450,79.973 288.800 C 80.441 287.150,81.095 284.900,81.426 283.800 C 81.757 282.700,82.270 280.900,82.567 279.800 C 82.864 278.700,83.555 276.270,84.102 274.400 C 84.649 272.530,85.214 270.550,85.358 270.000 C 85.670 268.808,86.470 266.032,87.606 262.200 C 88.062 260.660,88.677 258.500,88.972 257.400 C 89.462 255.571,90.570 251.708,92.241 246.000 C 92.596 244.790,93.160 242.810,93.494 241.600 C 93.829 240.390,94.327 238.680,94.601 237.800 C 94.875 236.920,95.415 235.030,95.802 233.600 C 96.188 232.170,96.826 229.920,97.219 228.600 C 97.612 227.280,98.227 225.120,98.586 223.800 C 99.648 219.895,100.480 217.062,100.857 216.070 C 101.051 215.559,101.398 214.299,101.627 213.270 C 101.857 212.242,102.309 210.995,102.631 210.500 L 103.218 209.600 134.509 209.606 C 151.719 209.609,166.045 209.767,166.344 209.957 " stroke="none" fill="#ff1e50" fill-rule="evenodd"/><path id="path2" d="M0.000 7.400 C 0.000 13.050,0.118 14.801,0.500 14.806 C 0.833 14.810,0.800 14.942,0.400 15.200 C 0.000 15.458,-0.033 15.590,0.300 15.594 C 0.633 15.598,0.800 16.270,0.800 17.600 C 0.800 19.111,0.947 19.600,1.400 19.600 C 1.817 19.600,2.000 20.020,2.000 20.976 C 2.000 21.733,2.208 22.481,2.462 22.638 C 2.772 22.830,2.817 22.740,2.598 22.362 C 2.405 22.029,2.420 21.936,2.636 22.133 C 3.069 22.530,3.086 22.629,3.150 25.200 C 3.187 26.689,3.353 27.200,3.800 27.200 C 4.252 27.200,4.400 27.686,4.400 29.171 C 4.400 30.390,4.629 31.372,5.000 31.743 C 5.330 32.073,5.600 32.973,5.600 33.743 C 5.600 34.513,5.848 35.391,6.152 35.695 C 6.455 35.998,6.831 37.172,6.987 38.303 C 7.142 39.434,7.524 40.571,7.835 40.829 C 8.160 41.099,8.400 42.022,8.400 43.006 C 8.400 44.156,8.596 44.790,9.000 44.945 C 9.423 45.107,9.600 45.768,9.600 47.187 C 9.600 48.337,9.782 49.200,10.024 49.200 C 10.257 49.200,10.336 49.380,10.200 49.600 C 10.064 49.820,10.143 50.000,10.376 50.000 C 10.612 50.000,10.800 50.804,10.800 51.813 C 10.800 53.055,10.989 53.698,11.400 53.855 C 11.831 54.021,12.000 54.696,12.000 56.255 C 12.000 57.815,12.169 58.490,12.600 58.655 C 13.003 58.810,13.200 59.443,13.200 60.581 C 13.200 61.768,13.440 62.493,14.000 63.000 C 14.440 63.398,14.800 64.214,14.800 64.813 C 14.800 65.412,15.070 66.126,15.400 66.400 C 15.763 66.702,16.000 67.577,16.000 68.620 C 16.000 69.618,16.252 70.595,16.600 70.943 C 16.960 71.302,17.200 72.281,17.200 73.384 C 17.200 74.652,17.387 75.297,17.800 75.455 C 18.205 75.611,18.400 76.247,18.400 77.414 C 18.400 78.417,18.652 79.395,19.000 79.743 C 19.333 80.076,19.600 81.054,19.600 81.943 C 19.600 82.832,19.867 83.810,20.200 84.143 C 20.537 84.480,20.800 85.457,20.800 86.371 C 20.800 87.467,21.062 88.262,21.600 88.800 C 22.163 89.363,22.400 90.133,22.400 91.400 C 22.400 92.733,22.556 93.200,23.000 93.200 C 23.467 93.200,23.600 93.735,23.600 95.613 C 23.600 97.388,23.758 98.086,24.200 98.255 C 24.607 98.412,24.800 99.050,24.800 100.243 C 24.800 101.538,24.958 102.000,25.400 102.000 C 25.867 102.000,26.000 102.535,26.000 104.413 C 26.000 106.188,26.158 106.886,26.600 107.055 C 27.008 107.212,27.200 107.851,27.200 109.055 C 27.200 110.259,27.392 110.899,27.800 111.055 C 28.130 111.182,28.402 111.671,28.405 112.143 C 28.415 113.630,28.873 114.800,29.447 114.800 C 29.842 114.800,30.000 115.357,30.000 116.757 C 30.000 118.128,30.180 118.783,30.600 118.945 C 31.033 119.111,31.200 119.790,31.200 121.387 C 31.200 123.052,31.343 123.600,31.779 123.600 C 32.196 123.600,32.392 124.189,32.479 125.700 C 32.549 126.918,32.780 127.768,33.030 127.723 C 33.281 127.679,33.498 128.508,33.554 129.719 C 33.606 130.858,33.907 132.077,34.224 132.427 C 34.541 132.777,34.800 133.779,34.800 134.655 C 34.800 135.531,35.064 136.596,35.387 137.024 C 35.710 137.451,36.093 138.655,36.238 139.700 C 36.408 140.914,36.701 141.600,37.052 141.600 C 37.450 141.600,37.600 142.205,37.600 143.813 C 37.600 145.410,37.767 146.089,38.200 146.255 C 38.620 146.417,38.800 147.072,38.800 148.443 C 38.800 149.916,38.948 150.400,39.400 150.400 C 39.859 150.400,40.000 150.906,40.000 152.551 C 40.000 153.975,40.203 154.870,40.600 155.200 C 40.930 155.474,41.200 156.216,41.200 156.849 C 41.200 157.605,41.406 158.000,41.800 158.000 C 42.238 158.000,42.401 158.458,42.405 159.700 C 42.413 161.979,42.776 163.200,43.447 163.200 C 43.829 163.200,44.000 163.715,44.000 164.869 C 44.000 165.786,44.260 166.824,44.577 167.174 C 44.894 167.525,45.198 168.674,45.253 169.728 C 45.307 170.783,45.576 171.771,45.850 171.924 C 46.124 172.077,46.405 173.102,46.474 174.201 C 46.546 175.345,46.784 176.167,47.030 176.123 C 47.282 176.079,47.495 176.905,47.546 178.123 C 47.598 179.387,47.861 180.374,48.216 180.644 C 48.578 180.919,48.800 181.783,48.800 182.916 C 48.800 184.006,49.042 184.985,49.400 185.343 C 49.730 185.673,50.002 186.361,50.005 186.871 C 50.015 188.425,50.463 189.600,51.047 189.600 C 51.457 189.600,51.600 190.225,51.600 192.013 C 51.600 193.788,51.758 194.486,52.200 194.655 C 52.606 194.811,52.800 195.448,52.800 196.623 C 52.800 197.719,53.013 198.479,53.376 198.682 C 53.734 198.883,53.998 199.801,54.076 201.109 L 54.200 203.214 141.112 203.204 L 228.024 203.195 228.387 204.097 C 228.659 204.775,228.756 204.828,228.775 204.308 C 228.789 203.918,229.229 203.507,229.784 203.368 C 230.325 203.233,230.977 202.869,231.233 202.561 C 231.715 201.979,397.062 201.665,398.567 202.243 C 398.915 202.376,399.200 202.736,399.200 203.043 C 399.200 203.349,399.380 203.600,399.600 203.600 C 399.855 203.600,400.000 200.200,400.000 194.200 C 400.000 188.200,399.855 184.800,399.600 184.800 C 399.378 184.800,399.200 183.733,399.200 182.400 C 399.200 180.533,399.067 180.000,398.600 180.000 C 398.147 180.000,398.000 179.511,398.000 178.000 C 398.000 176.489,397.853 176.000,397.400 176.000 C 396.963 176.000,396.786 175.511,396.750 174.200 C 396.679 171.626,396.620 171.388,396.082 171.500 C 395.752 171.568,395.600 170.904,395.600 169.400 C 395.600 167.711,395.461 167.200,395.000 167.200 C 394.550 167.200,394.400 166.721,394.400 165.289 C 394.400 164.238,394.155 163.023,393.855 162.589 C 393.555 162.155,393.187 160.961,393.036 159.935 C 392.881 158.881,392.509 157.974,392.181 157.848 C 391.770 157.690,391.600 156.978,391.600 155.413 C 391.600 153.748,391.457 153.200,391.021 153.200 C 390.604 153.200,390.408 152.611,390.321 151.100 C 390.250 149.872,390.020 149.032,389.768 149.077 C 389.508 149.124,389.298 148.247,389.243 146.880 C 389.183 145.394,388.951 144.493,388.575 144.282 C 388.215 144.081,388.000 143.323,388.000 142.257 C 388.000 141.320,387.736 140.204,387.413 139.776 C 387.090 139.349,386.820 138.605,386.813 138.123 C 386.806 137.640,386.451 137.001,386.023 136.701 C 385.448 136.298,385.222 135.609,385.150 134.038 C 385.090 132.730,384.852 131.841,384.527 131.717 C 384.201 131.592,384.000 130.839,384.000 129.745 C 384.000 128.541,383.808 127.901,383.400 127.745 C 382.981 127.584,382.800 126.931,382.800 125.586 C 382.800 124.405,382.567 123.425,382.200 123.057 C 381.862 122.719,381.600 121.741,381.600 120.816 C 381.600 119.726,381.398 119.098,381.000 118.945 C 380.580 118.783,380.400 118.128,380.400 116.757 C 380.400 115.646,380.217 114.800,379.976 114.800 C 379.743 114.800,379.664 114.620,379.800 114.400 C 379.936 114.180,379.857 114.000,379.624 114.000 C 379.391 114.000,379.200 113.304,379.200 112.454 C 379.200 111.514,378.887 110.509,378.400 109.891 C 377.867 109.213,377.600 108.268,377.600 107.057 C 377.600 105.894,377.393 105.124,377.026 104.918 C 376.678 104.724,376.402 103.809,376.326 102.599 C 376.254 101.455,376.016 100.633,375.770 100.677 C 375.518 100.721,375.305 99.895,375.254 98.677 C 375.204 97.471,374.936 96.423,374.615 96.179 C 374.311 95.947,374.003 95.137,373.931 94.379 C 373.859 93.620,373.607 93.034,373.370 93.077 C 373.118 93.121,372.905 92.295,372.854 91.077 C 372.807 89.932,372.533 88.820,372.244 88.600 C 371.956 88.380,371.627 87.225,371.513 86.033 C 371.383 84.684,371.058 83.686,370.652 83.389 C 370.231 83.081,370.000 82.325,370.000 81.256 C 370.000 80.051,369.837 79.600,369.400 79.600 C 368.941 79.600,368.800 79.094,368.800 77.449 C 368.800 76.025,368.597 75.130,368.200 74.800 C 367.836 74.498,367.600 73.622,367.600 72.571 C 367.600 71.532,367.382 70.712,367.054 70.520 C 366.747 70.340,366.420 69.247,366.305 68.017 C 366.193 66.816,365.899 65.766,365.651 65.684 C 365.403 65.601,365.200 64.733,365.200 63.754 C 365.200 62.592,365.004 61.900,364.636 61.758 C 364.288 61.625,363.968 60.643,363.800 59.200 C 363.632 57.757,363.312 56.775,362.964 56.642 C 362.595 56.500,362.400 55.807,362.400 54.641 C 362.400 53.589,362.154 52.611,361.800 52.257 C 361.440 51.898,361.200 50.919,361.200 49.816 C 361.200 48.548,361.013 47.903,360.600 47.745 C 360.263 47.615,360.000 47.020,360.000 46.386 C 360.000 45.765,359.730 44.987,359.400 44.657 C 359.040 44.298,358.800 43.319,358.800 42.216 C 358.800 40.948,358.613 40.303,358.200 40.145 C 357.820 39.999,357.598 39.380,357.595 38.457 C 357.587 36.409,357.200 35.200,356.553 35.200 C 356.156 35.200,356.000 34.636,356.000 33.200 C 356.000 31.813,355.847 31.231,355.500 31.300 C 355.156 31.369,354.962 30.674,354.879 29.080 C 354.798 27.508,354.572 26.687,354.179 26.537 C 353.783 26.385,353.600 25.697,353.600 24.357 C 353.600 22.884,353.452 22.400,353.000 22.400 C 352.540 22.400,352.400 21.892,352.400 20.229 C 352.400 18.832,352.186 17.843,351.800 17.457 C 351.468 17.126,351.200 16.148,351.200 15.271 C 351.200 14.231,350.994 13.606,350.600 13.455 C 350.215 13.307,349.998 12.684,349.995 11.713 C 349.987 9.661,349.610 8.400,349.003 8.400 C 348.679 8.400,348.432 7.587,348.310 6.120 C 348.206 4.866,347.914 3.771,347.660 3.687 C 347.407 3.602,347.200 2.918,347.200 2.167 C 347.200 1.219,347.016 0.800,346.600 0.800 C 346.270 0.800,346.000 0.620,346.000 0.400 C 346.000 0.134,288.067 0.000,173.000 0.000 L 0.000 0.000 0.000 7.400 M192.355 63.976 C 193.599 64.642,197.001 75.072,196.735 77.408 L 196.600 78.600 189.462 78.952 C 178.976 79.469,179.454 79.752,177.061 71.600 C 175.169 65.157,175.078 64.200,176.325 63.871 C 177.665 63.517,191.669 63.609,192.355 63.976 M163.636 65.057 C 164.195 65.617,165.096 68.043,166.235 72.057 C 167.194 75.436,168.165 78.830,168.392 79.600 C 172.200 92.478,177.125 109.327,180.203 120.000 C 182.328 127.370,185.243 137.450,186.680 142.400 C 188.117 147.350,189.437 151.940,189.613 152.600 C 189.790 153.260,190.363 155.330,190.887 157.200 C 192.397 162.590,192.709 162.387,182.909 162.395 L 176.018 162.400 175.334 161.300 C 173.732 158.724,173.650 158.693,171.982 160.014 C 167.866 163.274,156.805 163.425,150.629 160.305 C 144.877 157.399,142.374 152.990,138.422 138.800 C 136.887 133.288,136.203 130.891,134.993 126.800 C 134.701 125.810,134.071 123.650,133.595 122.000 C 133.119 120.350,132.498 118.280,132.215 117.400 C 131.933 116.520,131.470 115.080,131.187 114.200 C 130.904 113.320,130.537 112.060,130.370 111.400 C 130.203 110.740,129.604 108.580,129.038 106.600 C 126.415 97.415,128.521 92.390,135.671 90.773 C 141.734 89.402,148.230 90.042,152.039 92.386 C 154.296 93.774,154.950 93.902,154.628 92.889 C 154.504 92.498,154.108 91.103,153.749 89.789 C 153.389 88.475,152.854 86.590,152.560 85.600 C 151.163 80.901,149.617 75.453,147.791 68.800 L 146.859 65.400 147.704 64.676 C 149.075 63.501,162.400 63.820,163.636 65.057 M109.755 70.934 C 110.335 71.314,110.903 72.413,111.372 74.060 C 111.770 75.457,112.328 77.410,112.612 78.400 C 114.297 84.270,114.905 84.000,100.008 84.000 L 88.015 84.000 87.785 84.916 C 87.659 85.419,87.762 86.364,88.014 87.016 C 88.266 87.667,89.285 90.990,90.279 94.400 C 93.344 104.921,93.479 105.367,93.962 106.567 C 94.840 108.750,94.966 108.774,106.024 108.787 C 118.191 108.802,117.091 108.284,118.960 114.882 C 121.242 122.935,121.933 122.400,109.240 122.400 C 98.553 122.400,98.391 122.443,99.171 125.049 C 99.601 126.484,104.642 144.041,105.230 146.149 C 105.467 147.001,106.107 148.144,106.652 148.689 L 107.644 149.680 120.607 149.540 C 135.890 149.375,134.318 148.782,136.235 155.435 C 137.721 160.591,137.860 161.697,137.100 162.297 C 136.514 162.759,94.022 163.335,93.391 162.889 C 92.652 162.367,91.623 160.480,91.230 158.926 C 91.017 158.087,90.180 155.240,89.369 152.600 C 86.103 141.964,83.403 132.650,82.585 129.200 C 82.298 127.990,81.869 126.415,81.632 125.700 C 80.314 121.732,79.726 119.802,78.620 115.800 C 78.315 114.700,77.782 112.855,77.433 111.700 C 76.293 107.917,75.699 105.878,74.025 100.000 C 72.353 94.124,71.472 91.099,70.590 88.200 C 67.360 77.591,65.970 72.325,66.204 71.587 C 66.512 70.617,64.430 70.741,86.200 70.399 C 106.888 70.075,108.500 70.111,109.755 70.934 M226.169 76.961 C 227.121 77.359,227.634 77.913,227.931 78.861 C 228.161 79.598,228.909 82.046,229.593 84.303 C 231.163 89.486,231.463 89.718,236.854 89.935 C 241.531 90.122,241.137 89.727,242.984 96.092 C 245.016 103.094,245.021 103.084,239.087 103.160 C 236.630 103.192,235.923 103.334,235.730 103.839 C 235.482 104.484,237.331 111.612,240.803 123.400 C 241.839 126.920,243.358 132.140,244.177 135.000 C 247.786 147.596,248.106 147.992,254.691 147.998 C 257.790 148.001,257.871 148.107,259.782 154.684 C 261.893 161.946,262.217 161.600,253.310 161.600 C 238.566 161.600,233.428 157.501,228.993 142.200 C 228.611 140.880,228.073 139.080,227.799 138.200 C 227.525 137.320,226.987 135.430,226.604 134.000 C 226.221 132.570,225.658 130.721,225.353 129.892 C 225.049 129.062,224.800 127.944,224.800 127.405 C 224.800 126.867,224.549 125.836,224.243 125.114 C 223.937 124.391,223.288 122.450,222.801 120.800 C 222.314 119.150,221.684 117.080,221.400 116.200 C 221.116 115.320,220.572 113.520,220.191 112.200 C 219.810 110.880,219.251 109.074,218.949 108.187 C 218.647 107.299,218.400 106.256,218.400 105.868 C 218.400 104.298,216.603 103.200,214.034 103.200 C 211.233 103.200,210.265 102.470,209.540 99.814 C 209.298 98.926,208.863 97.480,208.574 96.600 C 206.561 90.464,206.705 90.016,210.700 90.006 L 213.200 90.000 213.200 88.819 C 213.200 88.169,213.036 87.224,212.836 86.719 C 212.636 86.213,211.978 84.052,211.374 81.915 C 209.945 76.858,209.938 76.867,215.538 76.698 C 217.882 76.628,220.931 76.532,222.313 76.485 C 223.759 76.436,225.396 76.638,226.169 76.961 M338.780 89.103 C 339.644 89.803,342.787 99.486,342.796 101.476 C 342.802 102.693,342.541 102.787,338.072 103.175 C 328.873 103.974,328.558 105.842,334.356 125.200 C 336.366 131.910,338.288 138.480,338.628 139.800 C 339.495 143.165,340.393 146.324,341.016 148.200 C 341.308 149.080,341.725 150.430,341.943 151.200 C 342.160 151.970,342.721 153.935,343.189 155.567 C 343.657 157.199,343.986 158.999,343.920 159.567 L 343.800 160.600 336.800 160.714 C 327.042 160.873,327.796 161.328,325.676 154.000 C 325.008 151.690,323.985 148.180,323.403 146.200 C 322.820 144.220,320.997 137.931,319.350 132.224 C 317.703 126.518,315.311 118.328,314.033 114.024 C 308.306 94.740,307.075 90.032,307.598 89.402 C 308.011 88.905,309.413 88.800,315.640 88.800 L 323.182 88.800 323.891 89.878 C 324.281 90.470,324.780 91.505,325.000 92.178 C 325.599 94.009,326.759 93.932,328.200 91.964 C 330.390 88.976,336.561 87.307,338.780 89.103 M284.359 89.618 C 293.840 90.807,297.654 95.528,301.793 111.200 C 302.171 112.630,302.704 114.520,302.978 115.400 C 303.842 118.174,304.769 121.281,305.841 125.000 C 306.412 126.980,307.116 129.410,307.406 130.400 C 316.115 160.134,315.807 160.776,292.670 161.103 C 276.853 161.327,273.618 160.591,268.969 155.714 C 265.459 152.032,264.981 150.784,258.578 128.600 C 257.117 123.540,254.954 116.160,253.771 112.200 C 249.843 99.051,249.671 96.094,252.646 92.802 C 255.179 89.998,255.845 89.844,266.600 89.583 C 271.880 89.455,277.285 89.316,278.610 89.275 C 279.936 89.234,282.523 89.388,284.359 89.618 M199.719 90.369 C 200.254 90.573,200.819 91.068,200.975 91.469 C 201.260 92.200,205.298 106.334,206.841 112.000 C 207.290 113.650,207.811 115.450,207.999 116.000 C 208.187 116.550,208.727 118.350,209.200 120.000 C 209.673 121.650,210.213 123.450,210.400 124.000 C 210.587 124.550,211.104 126.260,211.547 127.800 C 211.991 129.340,212.880 132.400,213.523 134.600 C 214.166 136.800,214.997 139.770,215.369 141.200 C 216.397 145.147,217.586 149.273,218.999 153.800 C 221.678 162.375,222.160 161.771,212.526 161.908 C 203.502 162.037,204.070 162.338,202.326 156.511 C 201.173 152.659,196.687 137.268,195.123 131.800 C 193.958 127.726,193.355 125.665,192.637 123.300 C 191.095 118.219,190.160 115.064,188.637 109.800 C 188.064 107.820,187.335 105.300,187.016 104.200 C 183.226 91.125,183.175 90.810,184.802 90.357 C 186.312 89.937,198.609 89.947,199.719 90.369 M270.000 102.515 C 268.135 103.454,268.213 104.006,272.026 116.800 C 275.826 129.548,279.599 142.852,279.613 143.549 C 279.679 146.774,283.202 148.522,289.244 148.328 C 294.958 148.144,296.085 146.548,294.035 141.542 C 293.823 141.024,293.289 139.340,292.848 137.800 C 292.407 136.260,291.494 133.110,290.820 130.800 C 290.145 128.490,289.320 125.610,288.986 124.400 C 288.138 121.329,287.189 118.086,286.586 116.200 C 286.305 115.320,285.769 113.520,285.394 112.200 C 283.202 104.479,282.791 103.629,280.721 102.559 C 279.312 101.830,271.425 101.798,270.000 102.515 M147.700 104.176 C 146.201 104.851,146.097 105.504,147.001 108.565 C 147.332 109.684,148.690 114.290,150.019 118.800 C 151.349 123.310,152.786 128.170,153.212 129.600 C 153.638 131.030,154.868 135.303,155.944 139.095 C 158.033 146.454,158.661 147.815,160.247 148.418 C 161.517 148.901,168.409 148.908,169.169 148.428 C 169.827 148.011,169.879 144.493,169.251 142.834 C 168.899 141.903,168.379 140.177,166.532 133.800 C 166.213 132.700,165.800 131.170,165.613 130.400 C 165.427 129.630,164.895 127.740,164.432 126.200 C 163.968 124.660,163.591 123.196,163.594 122.946 C 163.597 122.696,163.331 121.976,163.002 121.346 C 162.674 120.716,162.404 119.801,162.402 119.314 C 162.401 118.826,162.143 117.836,161.828 117.114 C 161.513 116.391,160.790 114.098,160.221 112.018 C 158.265 104.863,157.303 103.856,152.271 103.696 C 150.060 103.625,148.579 103.781,147.700 104.176 M218.891 236.900 C 218.210 238.784,218.304 239.294,219.026 237.630 C 219.353 236.877,219.566 236.099,219.501 235.902 C 219.435 235.705,219.160 236.154,218.891 236.900 M216.491 245.300 C 215.810 247.184,215.904 247.694,216.626 246.030 C 216.953 245.277,217.166 244.499,217.101 244.302 C 217.035 244.105,216.760 244.554,216.491 245.300 M210.091 267.700 C 209.410 269.584,209.504 270.094,210.226 268.430 C 210.553 267.677,210.766 266.899,210.701 266.702 C 210.635 266.505,210.360 266.954,210.091 267.700 M196.091 316.500 C 195.410 318.384,195.504 318.894,196.226 317.230 C 196.553 316.477,196.766 315.699,196.701 315.502 C 196.635 315.305,196.360 315.754,196.091 316.500 M189.691 338.900 C 189.010 340.784,189.104 341.294,189.826 339.630 C 190.153 338.877,190.366 338.099,190.301 337.902 C 190.235 337.705,189.960 338.154,189.691 338.900 M180.891 369.700 C 180.210 371.584,180.304 372.094,181.026 370.430 C 181.353 369.677,181.566 368.899,181.501 368.702 C 181.435 368.505,181.160 368.954,180.891 369.700 M175.677 387.738 C 175.415 388.464,175.209 389.314,175.219 389.628 C 175.230 389.943,175.512 389.418,175.847 388.461 C 176.182 387.505,176.388 386.655,176.305 386.571 C 176.222 386.488,175.939 387.013,175.677 387.738 " stroke="none" fill="#5d00b5" fill-rule="evenodd"/><path id="path3" d="M177.276 64.285 C 175.847 64.558,175.802 65.365,176.980 69.535 C 179.694 79.141,178.772 78.400,188.013 78.400 C 197.515 78.400,196.986 78.925,194.962 71.492 C 192.819 63.617,193.317 63.986,184.918 64.054 C 181.223 64.084,177.784 64.188,177.276 64.285 M153.283 64.699 C 148.998 64.799,147.921 64.940,147.735 65.426 C 147.436 66.205,147.389 66.030,152.988 85.308 C 155.706 94.669,155.658 95.099,152.138 92.979 C 146.555 89.618,134.330 90.011,130.782 93.666 C 127.446 97.104,127.545 100.032,131.439 113.000 C 132.429 116.300,133.604 120.260,134.050 121.800 C 134.495 123.340,135.014 125.050,135.204 125.600 C 135.393 126.150,136.292 129.300,137.201 132.600 C 138.110 135.900,139.021 139.140,139.224 139.800 C 139.428 140.460,140.148 142.890,140.824 145.200 C 144.445 157.566,149.930 161.948,161.836 161.986 C 167.271 162.003,169.565 161.387,171.652 159.349 C 173.364 157.677,174.170 157.914,175.196 160.391 C 175.817 161.889,176.337 161.988,183.624 161.995 C 192.594 162.002,192.148 162.996,188.558 151.000 C 187.768 148.360,186.620 144.400,186.006 142.200 C 185.392 140.000,183.684 134.060,182.209 129.000 C 180.735 123.940,178.485 116.200,177.209 111.800 C 162.294 60.342,163.898 65.320,162.071 64.813 C 161.262 64.588,160.150 64.443,159.600 64.490 C 159.050 64.536,156.207 64.631,153.283 64.699 M71.000 71.179 L 66.600 71.400 66.730 72.594 C 66.801 73.250,67.857 77.210,69.076 81.394 C 70.294 85.577,71.443 89.540,71.629 90.200 C 72.498 93.285,75.052 102.070,78.607 114.200 C 79.187 116.180,80.110 119.420,80.659 121.400 C 81.207 123.380,81.913 125.591,82.228 126.314 C 82.543 127.036,82.800 127.949,82.800 128.342 C 82.800 128.736,83.049 129.855,83.352 130.829 C 83.990 132.874,84.523 134.669,87.023 143.200 C 88.022 146.610,89.211 150.660,89.664 152.200 C 90.118 153.740,90.754 155.900,91.078 157.000 C 91.992 160.105,92.884 162.020,93.572 162.354 C 94.723 162.913,135.877 162.378,136.677 161.793 C 137.425 161.246,135.542 153.161,134.140 150.900 L 133.582 150.000 120.372 150.000 L 107.162 150.000 106.278 149.046 C 105.186 147.868,105.179 147.847,101.386 134.436 C 99.110 126.388,98.391 123.303,98.685 122.836 C 99.028 122.291,100.530 122.171,109.158 122.000 C 119.198 121.801,119.966 121.687,119.992 120.400 C 120.010 119.491,116.746 109.812,116.333 109.550 C 116.040 109.364,111.196 109.209,105.570 109.206 L 95.339 109.200 94.426 108.227 C 93.861 107.626,92.986 105.450,92.135 102.527 C 91.377 99.927,90.115 95.640,89.330 93.000 C 86.275 82.727,85.810 83.613,94.287 83.550 C 97.979 83.522,103.610 83.387,106.800 83.250 L 112.600 83.000 112.558 81.400 C 112.498 79.139,110.434 71.899,109.678 71.300 C 109.023 70.781,80.698 70.692,71.000 71.179 M211.244 77.747 C 210.898 78.164,211.112 79.421,212.147 83.047 C 213.972 89.441,213.985 89.514,213.445 89.963 C 213.185 90.178,211.899 90.410,210.586 90.477 C 207.670 90.627,207.467 91.222,208.797 95.717 C 210.820 102.554,211.026 102.800,214.737 102.800 C 217.301 102.800,218.218 103.555,218.992 106.304 C 219.937 109.657,224.828 126.207,228.452 138.310 C 234.352 158.017,237.902 161.212,253.883 161.194 C 261.495 161.185,261.293 161.472,259.055 153.865 C 257.371 148.138,257.897 148.663,253.533 148.355 C 247.277 147.912,246.950 147.404,242.607 131.400 C 242.308 130.300,241.586 127.780,241.001 125.800 C 238.505 117.345,234.800 104.367,234.806 104.095 C 234.830 102.922,235.732 102.596,239.484 102.402 C 244.301 102.153,244.291 102.179,242.253 95.382 C 240.561 89.737,241.128 90.274,236.689 90.104 C 230.436 89.864,230.660 90.062,228.616 82.971 C 227.811 80.175,226.961 78.014,226.548 77.712 C 225.510 76.954,211.877 76.984,211.244 77.747 M333.487 89.237 C 330.998 89.823,329.652 90.726,328.150 92.817 C 327.366 93.908,326.492 94.800,326.208 94.800 C 325.721 94.800,324.400 92.530,324.400 91.693 C 324.400 91.481,324.027 90.834,323.571 90.254 L 322.742 89.200 315.800 89.200 C 306.981 89.200,307.271 88.989,308.823 94.289 C 313.140 109.040,318.987 129.187,321.856 139.200 C 328.643 162.883,327.013 160.400,335.767 160.400 C 344.024 160.400,344.457 160.210,343.237 157.119 C 343.038 156.613,342.485 154.760,342.009 153.000 C 341.532 151.240,340.989 149.350,340.801 148.800 C 340.425 147.698,339.680 145.099,337.246 136.400 C 336.354 133.210,334.800 127.900,333.792 124.600 C 330.979 115.385,330.818 114.803,330.234 111.691 C 329.036 105.305,331.040 103.058,338.403 102.536 C 342.835 102.221,342.767 102.393,340.957 96.062 C 338.736 88.292,338.483 88.060,333.487 89.237 M268.400 90.003 C 256.239 90.227,255.860 90.302,253.085 92.996 C 250.040 95.954,250.332 99.019,255.200 115.200 C 256.491 119.490,258.985 128.040,260.743 134.200 C 265.451 150.699,265.821 151.626,269.144 155.262 C 273.521 160.051,277.398 160.938,292.935 160.702 C 307.508 160.481,310.019 159.720,311.831 154.974 C 313.097 151.660,312.780 150.239,304.351 121.400 C 303.708 119.200,302.893 116.410,302.539 115.200 C 302.186 113.990,301.762 112.635,301.597 112.189 C 301.433 111.743,300.812 109.496,300.218 107.196 C 298.279 99.686,295.804 95.459,291.731 92.699 C 287.616 89.910,285.661 89.684,268.400 90.003 M185.134 90.669 C 183.775 91.029,183.982 91.910,191.185 116.400 C 192.658 121.407,197.495 138.004,200.046 146.800 C 204.843 163.341,203.388 161.600,212.413 161.600 C 220.800 161.600,220.750 161.627,219.660 157.787 C 218.025 152.023,216.783 147.736,216.189 145.800 C 215.852 144.700,214.784 141.010,213.816 137.600 C 212.847 134.190,211.575 129.780,210.988 127.800 C 210.401 125.820,209.669 123.345,209.361 122.300 C 209.052 121.255,208.548 119.545,208.239 118.500 C 207.257 115.169,205.625 109.473,205.004 107.200 C 202.464 97.920,200.339 91.345,199.738 90.905 C 199.072 90.418,186.830 90.220,185.134 90.669 M281.481 102.384 C 283.423 103.568,283.284 103.193,288.595 121.600 C 288.881 122.590,290.329 127.540,291.814 132.600 C 296.788 149.553,296.972 148.800,287.844 148.800 C 280.960 148.800,280.445 148.201,277.195 136.400 C 276.074 132.330,275.000 128.550,274.808 128.000 C 274.616 127.450,274.095 125.740,273.650 124.200 C 273.204 122.660,272.043 118.700,271.070 115.400 C 267.560 103.503,267.630 103.933,268.982 102.582 C 270.341 101.223,279.342 101.080,281.481 102.384 M156.126 103.650 C 158.494 104.869,158.957 105.879,162.077 116.600 C 162.525 118.140,163.113 120.120,163.384 121.000 C 164.211 123.688,165.101 126.763,166.623 132.200 C 168.098 137.466,168.850 140.009,169.849 143.114 C 171.420 147.998,170.352 149.400,165.058 149.400 C 158.870 149.400,158.092 148.661,155.796 140.600 C 154.982 137.740,153.603 132.970,152.732 130.000 C 151.862 127.030,150.807 123.430,150.389 122.000 C 149.971 120.570,148.813 116.638,147.815 113.262 C 144.993 103.717,145.183 103.200,151.515 103.200 C 153.571 103.200,155.646 103.402,156.126 103.650 M102.631 210.500 C 102.309 210.995,101.857 212.242,101.627 213.270 C 101.398 214.299,101.051 215.559,100.857 216.070 C 100.480 217.062,99.648 219.895,98.586 223.800 C 98.227 225.120,97.612 227.280,97.219 228.600 C 96.826 229.920,96.188 232.170,95.802 233.600 C 95.415 235.030,94.875 236.920,94.601 237.800 C 94.327 238.680,93.829 240.390,93.494 241.600 C 93.160 242.810,92.596 244.790,92.241 246.000 C 90.570 251.708,89.462 255.571,88.972 257.400 C 88.677 258.500,88.062 260.660,87.606 262.200 C 86.470 266.032,85.670 268.808,85.358 270.000 C 85.214 270.550,84.649 272.530,84.102 274.400 C 83.555 276.270,82.864 278.700,82.567 279.800 C 82.270 280.900,81.757 282.700,81.426 283.800 C 81.095 284.900,80.441 287.150,79.973 288.800 C 79.505 290.450,78.864 292.700,78.548 293.800 C 78.231 294.900,77.724 296.700,77.420 297.800 C 77.115 298.900,76.567 300.790,76.200 302.000 C 75.833 303.210,75.286 305.100,74.985 306.200 C 74.683 307.300,74.057 309.460,73.594 311.000 C 73.131 312.540,72.586 314.577,72.383 315.527 C 72.180 316.476,71.911 317.420,71.785 317.624 C 71.659 317.828,71.290 318.941,70.964 320.097 C 70.639 321.254,70.119 323.100,69.810 324.200 C 69.500 325.300,68.972 327.190,68.637 328.400 C 68.302 329.610,67.767 331.500,67.448 332.600 C 67.130 333.700,66.589 335.590,66.247 336.800 C 65.904 338.010,65.250 340.260,64.794 341.800 C 64.338 343.340,63.717 345.500,63.415 346.600 C 63.114 347.700,62.570 349.590,62.208 350.800 C 61.846 352.010,61.312 353.900,61.021 355.000 C 60.449 357.166,58.817 362.874,57.763 366.400 C 57.018 368.888,56.355 371.195,55.461 374.400 C 55.124 375.610,54.587 377.500,54.268 378.600 C 53.948 379.700,53.288 382.040,52.800 383.800 C 52.312 385.560,51.653 387.702,51.336 388.559 C 50.386 391.128,48.621 390.990,84.006 391.107 L 116.372 391.214 117.017 390.230 C 117.371 389.689,117.902 388.291,118.197 387.123 C 118.492 385.956,119.030 384.010,119.392 382.800 C 119.754 381.590,120.294 379.700,120.592 378.600 C 120.890 377.500,121.433 375.610,121.800 374.400 C 122.893 370.790,122.949 370.340,122.355 369.964 C 122.050 369.770,112.316 369.609,100.724 369.606 C 89.132 369.603,79.559 369.458,79.452 369.284 C 79.345 369.110,79.612 367.715,80.046 366.184 C 80.481 364.653,81.080 362.500,81.378 361.400 C 81.676 360.300,82.218 358.410,82.582 357.200 C 83.420 354.413,84.211 351.604,84.948 348.800 C 85.265 347.590,85.701 346.060,85.915 345.400 C 86.327 344.133,87.278 340.862,88.300 337.200 C 88.637 335.990,89.153 334.190,89.445 333.200 C 89.738 332.210,90.347 330.050,90.800 328.400 C 91.253 326.750,91.866 324.590,92.164 323.600 C 92.759 321.618,93.671 318.442,94.659 314.903 C 95.615 311.479,96.463 309.063,96.905 308.500 C 97.209 308.114,101.206 308.000,114.459 308.000 L 131.620 308.000 132.031 306.918 C 132.475 305.750,133.742 301.426,134.585 298.200 C 134.872 297.100,135.555 294.670,136.102 292.800 C 137.529 287.919,137.570 287.673,137.023 287.219 C 136.708 286.957,130.539 286.771,119.964 286.704 L 103.400 286.600 103.454 285.400 C 103.507 284.230,104.045 282.073,105.400 277.600 C 105.767 276.390,106.314 274.500,106.615 273.400 C 107.118 271.571,108.052 268.275,109.394 263.600 C 109.679 262.610,110.217 260.720,110.590 259.400 C 110.964 258.080,111.534 256.100,111.857 255.000 C 112.180 253.900,112.687 252.100,112.984 251.000 C 113.770 248.090,115.497 242.083,116.147 240.000 C 116.456 239.010,117.018 237.030,117.395 235.600 C 117.772 234.170,118.238 232.597,118.430 232.104 L 118.780 231.207 139.834 231.104 L 160.889 231.000 161.581 229.000 C 161.961 227.900,162.561 226.010,162.913 224.800 C 163.265 223.590,163.945 221.250,164.424 219.600 C 164.903 217.950,165.534 215.970,165.827 215.200 C 166.717 212.854,166.964 210.350,166.344 209.957 C 166.045 209.767,151.719 209.609,134.509 209.606 L 103.218 209.600 102.631 210.500 M269.327 210.247 C 269.190 210.602,269.299 213.527,269.568 216.747 C 269.838 219.966,270.214 226.839,270.404 232.021 C 270.594 237.203,270.932 243.323,271.154 245.621 C 271.377 247.919,271.663 253.130,271.790 257.200 C 271.916 261.270,272.193 266.490,272.405 268.800 C 272.617 271.110,272.985 277.230,273.225 282.400 C 273.464 287.570,273.752 293.060,273.864 294.600 C 274.101 297.839,273.647 299.075,270.414 304.000 C 269.330 305.650,267.709 308.170,266.810 309.600 C 265.911 311.030,264.462 313.280,263.590 314.600 C 262.719 315.920,261.879 317.265,261.725 317.590 C 261.571 317.914,260.535 319.561,259.423 321.249 C 258.310 322.938,256.320 326.053,255.000 328.173 C 253.680 330.293,251.700 333.424,250.600 335.131 C 249.500 336.838,247.880 339.389,247.000 340.800 C 246.120 342.211,244.500 344.762,243.400 346.469 C 242.300 348.176,240.320 351.303,239.000 353.419 C 237.680 355.534,236.015 358.106,235.299 359.133 C 234.584 360.160,233.828 361.393,233.620 361.872 C 233.411 362.352,232.271 364.242,231.086 366.072 C 229.901 367.903,227.596 371.525,225.965 374.123 C 224.334 376.721,222.157 380.141,221.127 381.723 C 220.097 383.305,218.696 385.500,218.014 386.600 C 217.332 387.700,216.571 388.891,216.323 389.246 C 215.037 391.089,215.670 391.202,227.087 391.172 C 232.979 391.156,238.116 391.019,238.502 390.866 C 239.103 390.628,243.863 383.034,247.067 377.200 C 247.611 376.210,248.391 374.860,248.800 374.200 C 249.209 373.540,250.027 372.100,250.617 371.000 C 251.207 369.900,251.939 368.716,252.245 368.369 C 252.550 368.021,252.800 367.597,252.800 367.427 C 252.800 367.256,253.340 366.316,254.000 365.338 C 254.660 364.360,255.200 363.484,255.200 363.390 C 255.200 363.254,261.719 351.999,263.187 349.600 C 264.654 347.203,268.443 340.816,268.882 340.000 C 269.178 339.450,269.879 338.280,270.439 337.400 C 271.000 336.520,271.582 335.530,271.734 335.200 C 271.885 334.870,272.365 334.060,272.800 333.400 C 273.235 332.740,273.811 331.750,274.079 331.200 C 274.347 330.650,275.310 329.030,276.219 327.600 C 277.128 326.170,278.069 324.640,278.309 324.200 C 279.090 322.771,279.128 323.975,279.371 357.384 C 279.529 379.195,279.747 390.307,280.023 390.584 C 280.488 391.049,300.902 391.411,303.153 390.994 L 304.506 390.744 304.242 388.272 C 304.096 386.912,303.813 382.470,303.612 378.400 C 303.411 374.330,303.057 369.200,302.825 367.000 C 302.593 364.800,302.222 359.850,302.000 356.000 C 301.276 343.435,300.797 336.277,300.381 331.800 C 300.156 329.380,299.801 324.160,299.592 320.200 C 299.382 316.240,299.033 311.290,298.816 309.200 C 298.003 301.367,298.226 297.940,299.700 295.648 C 301.551 292.769,303.261 290.031,308.597 281.400 C 311.181 277.220,313.877 272.900,314.587 271.800 C 315.297 270.700,316.364 268.990,316.956 268.000 C 318.732 265.035,318.933 264.708,320.644 262.001 C 322.328 259.337,323.068 258.152,327.088 251.675 C 328.360 249.626,329.670 247.525,330.000 247.006 C 330.330 246.487,331.737 244.203,333.127 241.931 C 334.517 239.659,336.626 236.270,337.813 234.400 C 339.000 232.530,340.464 230.190,341.066 229.200 C 341.668 228.210,343.069 225.956,344.180 224.191 C 346.339 220.761,346.291 220.839,348.847 216.600 C 349.775 215.060,350.969 213.224,351.500 212.519 C 353.541 209.812,353.541 209.813,340.722 209.694 L 329.254 209.588 327.227 213.032 C 326.112 214.926,325.200 216.534,325.200 216.606 C 325.200 216.678,324.335 218.236,323.279 220.068 C 322.222 221.901,321.225 223.670,321.063 224.000 C 320.901 224.330,320.550 224.960,320.283 225.400 C 320.015 225.840,319.004 227.640,318.035 229.400 C 317.066 231.160,315.401 234.091,314.336 235.912 C 313.271 237.734,312.400 239.304,312.400 239.401 C 312.400 239.498,311.570 240.977,310.556 242.688 C 309.542 244.400,308.552 246.160,308.357 246.600 C 308.162 247.040,307.823 247.670,307.604 248.000 C 306.777 249.248,303.600 254.832,303.600 255.040 C 303.600 255.159,302.781 256.605,301.780 258.253 C 300.780 259.902,299.782 261.644,299.563 262.125 C 299.345 262.606,298.946 263.360,298.678 263.800 C 298.047 264.833,295.120 269.968,294.600 270.953 C 293.496 273.044,293.400 270.657,293.400 241.000 C 293.400 224.280,293.254 210.375,293.076 210.100 C 292.526 209.249,269.655 209.390,269.327 210.247 " stroke="none" fill="#ffffff" fill-rule="evenodd"/></g></svg>